<svg xmlns="http://www.w3.org/2000/svg" viewBox="0 0 50 50" width="50" height="50" style="fill: rgb(0, 0, 0);">
    <path style="line-height:normal;text-indent:0;text-align:start;text-decoration-line:none;text-decoration-style:solid;text-decoration-color:#000;text-transform:none;block-progression:tb;isolation:auto;mix-blend-mode:normal" d="M 29.992188 5.9824219 C 25.852127 5.9552181 20.947689 7.3250697 15.763672 11.931641 L 14.142578 10.34375 A 1.0001 1.0001 0 0 0 13.417969 10.058594 A 1.0001 1.0001 0 0 0 12.736328 10.349609 L 10.291016 12.779297 A 1.0001 1.0001 0 0 0 10.285156 14.191406 L 11.957031 15.882812 C 5.4971063 23.558175 5.1777726 30.427751 7.0664062 35.357422 A 1.0001 1.0001 0 0 0 9 35 C 9 30.954504 11.36092 26.598979 13.792969 23.298828 C 14.671495 22.106719 15.506754 21.125595 16.269531 20.269531 L 38.09375 42.972656 A 1.0001 1.0001 0 0 0 38.097656 42.976562 C 39.413789 44.335152 41.62707 44.327444 42.976562 42.976562 C 44.325638 41.627488 44.334375 39.411515 42.974609 38.095703 A 1.0001 1.0001 0 0 0 42.972656 38.09375 L 20.244141 16.306641 C 21.176792 15.498252 22.496724 14.431297 24.099609 13.351562 C 27.368535 11.149548 31.725176 9 35.964844 9 A 1.0001 1.0001 0 0 0 36.273438 7.0488281 C 34.9784 6.6281999 33.502225 6.2634768 31.878906 6.0898438 C 31.270162 6.0247313 30.64026 5.9866803 29.992188 5.9824219 z M 30.240234 8.0664062 C 27.537407 8.9730473 25.033901 10.309491 22.982422 11.691406 C 20.894748 13.097703 19.318456 14.44272 18.333984 15.335938 A 1.0001 1.0001 0 0 0 18.330078 15.337891 A 1.0001 1.0001 0 0 0 17.869141 15.757812 C 17.50348 16.101025 17.255859 16.34375 17.255859 16.34375 A 1.0001 1.0001 0 0 0 17.205078 16.400391 A 1.0001 1.0001 0 0 0 17.189453 16.417969 C 17.112749 16.48861 16.549228 17.021892 15.771484 17.837891 A 1.0001 1.0001 0 0 0 15.253906 18.398438 C 14.371188 19.358466 13.299252 20.594794 12.181641 22.111328 C 10.653026 24.185571 9.1702037 26.697599 8.1679688 29.388672 C 8.2422908 25.293407 10.011824 20.411705 15.685547 14.751953 A 1.0001 1.0001 0 0 0 15.701172 14.734375 C 21.273438 9.1566386 26.1385 7.9045633 30.240234 8.0664062 z M 13.447266 12.462891 L 14.302734 13.302734 C 14.291042 13.314422 14.279273 13.324216 14.267578 13.335938 A 1.0001 1.0001 0 0 0 14.171875 13.449219 C 13.859195 13.763432 13.57887 14.072848 13.287109 14.384766 L 12.408203 13.496094 L 13.447266 12.462891 z M 18.769531 17.664062 L 41.583984 39.533203 C 42.144265 40.075392 42.157421 40.967575 41.5625 41.5625 C 40.965993 42.15962 40.077071 42.1454 39.533203 41.583984 L 17.628906 18.796875 C 18.216279 18.197266 18.650391 17.78125 18.650391 17.78125 A 1.0001 1.0001 0 0 0 18.720703 17.710938 A 1.0001 1.0001 0 0 0 18.724609 17.707031 C 18.726104 17.705511 18.765043 17.668601 18.769531 17.664062 z" font-weight="400" font-family="sans-serif" white-space="normal" overflow="visible"/>
</svg>