<svg xmlns="http://www.w3.org/2000/svg" xmlns:xlink="http://www.w3.org/1999/xlink" viewBox="0 0 50 50" version="1.1" width="50" height="50" style="fill: rgb(0, 0, 0);">
<g id="surface1">
<path style=" " d="M 19.8125 12 C 19.464844 12.070313 19.179688 12.320313 19.0625 12.65625 L 16.3125 20 L 12 20 C 11.96875 20 11.9375 20 11.90625 20 C 11.523438 20.039063 11.195313 20.292969 11.0625 20.65625 L 8.3125 28 L 4 28 C 3.96875 28 3.9375 28 3.90625 28 C 3.875 28 3.84375 28 3.8125 28 C 3.464844 28.070313 3.179688 28.320313 3.0625 28.65625 L 0.0625 36.65625 C -0.0507813 36.960938 -0.00390625 37.304688 0.179688 37.570313 C 0.367188 37.839844 0.671875 38 1 38 L 33 38 C 33.03125 38 33.0625 38 33.09375 38 L 49 38 C 49.328125 38 49.632813 37.839844 49.820313 37.570313 C 50.003906 37.304688 50.050781 36.960938 49.9375 36.65625 L 46.9375 28.65625 C 46.792969 28.261719 46.417969 28 46 28 L 41.6875 28 L 38.9375 20.65625 C 38.792969 20.261719 38.417969 20 38 20 L 33.6875 20 L 30.9375 12.65625 C 30.792969 12.261719 30.417969 12 30 12 L 20 12 C 19.96875 12 19.9375 12 19.90625 12 C 19.875 12 19.84375 12 19.8125 12 Z M 20.6875 14 L 29.3125 14 L 31.5625 20 L 18.4375 20 Z M 12.6875 22 L 21.3125 22 L 23.5625 28 L 10.4375 28 Z M 23.4375 22 L 26.5625 22 L 25 26.15625 Z M 28.6875 22 L 37.3125 22 L 39.5625 28 L 26.4375 28 Z M 4.6875 30 L 13.3125 30 L 15.5625 36 L 2.4375 36 Z M 15.4375 30 L 18.5625 30 L 17 34.15625 Z M 20.6875 30 L 29.3125 30 L 31.5625 36 L 18.4375 36 Z M 31.4375 30 L 34.5625 30 L 33 34.15625 Z M 36.6875 30 L 45.3125 30 L 47.5625 36 L 34.4375 36 Z "/>
</g>
</svg>