<svg xmlns="http://www.w3.org/2000/svg" xmlns:xlink="http://www.w3.org/1999/xlink" viewBox="0 0 50 50" version="1.1" width="50" height="50" style="fill: rgb(0, 0, 0);">
<g id="surface1">
<path style=" " d="M 7.8125 3 C 7.335938 3.089844 6.992188 3.511719 7 4 L 7 8 C 7 8.550781 7.449219 9 8 9 L 11 9 L 11 12 C 11 12.550781 11.449219 13 12 13 L 13 13 L 13 15.3125 C 13 19.609375 15.578125 23.289063 19.25 25 C 15.578125 26.710938 13 30.390625 13 34.6875 L 13 37 L 12 37 C 11.96875 37 11.9375 37 11.90625 37 C 11.390625 37.046875 10.996094 37.480469 11 38 L 11 41 L 8 41 C 7.449219 41 7 41.449219 7 42 L 7 46 C 7 46.550781 7.449219 47 8 47 L 42 47 C 42.550781 47 43 46.550781 43 46 L 43 42 C 43 41.449219 42.550781 41 42 41 L 39 41 L 39 38 C 39 37.449219 38.550781 37 38 37 L 37 37 L 37 34.6875 C 37 30.390625 34.421875 26.710938 30.75 25 C 34.421875 23.289063 37 19.609375 37 15.3125 L 37 13 L 38 13 C 38.550781 13 39 12.550781 39 12 L 39 9 L 42 9 C 42.550781 9 43 8.550781 43 8 L 43 4 C 43 3.449219 42.550781 3 42 3 L 8 3 C 7.96875 3 7.9375 3 7.90625 3 C 7.875 3 7.84375 3 7.8125 3 Z M 9 5 L 41 5 L 41 7 L 38 7 C 37.449219 7 37 7.449219 37 8 L 37 11 L 13 11 L 13 8 C 13 7.449219 12.550781 7 12 7 L 9 7 Z M 15 13 L 35 13 L 35 15.3125 C 35 19.890625 31.394531 23.640625 26.90625 24 C 26.359375 24.007813 25.921875 24.453125 25.921875 25 C 25.921875 25.546875 26.359375 25.992188 26.90625 26 C 31.394531 26.359375 35 30.109375 35 34.6875 L 35 37 L 33.75 37 C 33.488281 36.203125 32.972656 34.875 32.09375 33.46875 C 30.75 31.316406 28.445313 29 25 29 C 21.554688 29 19.25 31.316406 17.90625 33.46875 C 17.027344 34.875 16.511719 36.203125 16.25 37 L 15 37 L 15 34.6875 C 15 30.109375 18.605469 26.359375 23.09375 26 C 23.640625 25.992188 24.078125 25.546875 24.078125 25 C 24.078125 24.453125 23.640625 24.007813 23.09375 24 C 18.605469 23.640625 15 19.890625 15 15.3125 Z M 17.8125 16 C 17.519531 16.054688 17.265625 16.234375 17.121094 16.496094 C 16.976563 16.753906 16.957031 17.066406 17.0625 17.34375 C 17.0625 17.34375 19.160156 23 25 23 C 30.839844 23 32.9375 17.34375 32.9375 17.34375 C 33.050781 17.039063 33.003906 16.695313 32.820313 16.429688 C 32.632813 16.160156 32.328125 16 32 16 L 18 16 C 17.96875 16 17.9375 16 17.90625 16 C 17.875 16 17.84375 16 17.8125 16 Z M 19.75 18 L 30.25 18 C 29.507813 19.28125 28.15625 21 25 21 C 21.84375 21 20.492188 19.28125 19.75 18 Z M 25 31 C 27.554688 31 29.25 32.683594 30.40625 34.53125 C 31.175781 35.761719 31.273438 36.308594 31.5 37 L 18.5 37 C 18.726563 36.308594 18.824219 35.761719 19.59375 34.53125 C 20.75 32.683594 22.445313 31 25 31 Z M 13 39 L 37 39 L 37 42 C 37 42.550781 37.449219 43 38 43 L 41 43 L 41 45 L 9 45 L 9 43 L 12 43 C 12.550781 43 13 42.550781 13 42 Z "/>
</g>
</svg>