<svg xmlns="http://www.w3.org/2000/svg" viewBox="0 0 50 50" width="50" height="50" style="fill: rgb(0, 0, 0);">
    <path style="line-height:normal;text-indent:0;text-align:start;text-decoration-line:none;text-decoration-style:solid;text-decoration-color:#000;text-transform:none;block-progression:tb;isolation:auto;mix-blend-mode:normal" d="M 7 2 L 7 48 L 8 48 L 32.832031 48 A 1.0001 1.0001 0 0 0 33.158203 48 L 33.414062 48 L 33.607422 47.806641 A 1.0001 1.0001 0 0 0 33.792969 47.623047 A 1.0001 1.0001 0 0 0 33.796875 47.617188 L 42.619141 38.794922 A 1.0001 1.0001 0 0 0 42.810547 38.603516 L 43 38.414062 L 43 38.167969 A 1.0001 1.0001 0 0 0 43 37.841797 L 43 2 L 7 2 z M 9 4 L 41 4 L 41 37 L 32 37 L 32 46 L 9 46 L 9 4 z M 15 13 L 15 15 L 18 15 L 18 13 L 15 13 z M 21 13 L 21 15 L 35 15 L 35 13 L 21 13 z M 15 19 L 15 21 L 18 21 L 18 19 L 15 19 z M 21 19 L 21 21 L 35 21 L 35 19 L 21 19 z M 15 25 L 15 27 L 18 27 L 18 25 L 15 25 z M 21 25 L 21 27 L 35 27 L 35 25 L 21 25 z M 15 31 L 15 33 L 18 33 L 18 31 L 15 31 z M 21 31 L 21 33 L 35 33 L 35 31 L 21 31 z M 34 39 L 39.585938 39 L 34 44.585938 L 34 39 z" font-weight="400" font-family="sans-serif" white-space="normal" overflow="visible"/>
</svg>