<svg xmlns="http://www.w3.org/2000/svg" xmlns:xlink="http://www.w3.org/1999/xlink" viewBox="0 0 50 50" version="1.1" width="50" height="50" style="fill: rgb(0, 0, 0);">
<g id="surface1">
<path style=" " d="M 24.90625 3.96875 C 24.875 3.976563 24.84375 3.988281 24.8125 4 L 11 4 C 10.96875 4 10.9375 4 10.90625 4 C 10.875 4 10.84375 4 10.8125 4 C 10.652344 4.035156 10.5 4.109375 10.375 4.21875 L 4.46875 9.15625 L 4.375 9.21875 C 4.332031 9.246094 4.289063 9.277344 4.25 9.3125 C 4.238281 9.324219 4.230469 9.332031 4.21875 9.34375 C 4.21875 9.355469 4.21875 9.363281 4.21875 9.375 C 4.207031 9.375 4.199219 9.375 4.1875 9.375 C 4.1875 9.394531 4.1875 9.417969 4.1875 9.4375 C 4.164063 9.46875 4.144531 9.5 4.125 9.53125 C 4.085938 9.589844 4.054688 9.652344 4.03125 9.71875 C 4.015625 9.78125 4.003906 9.84375 4 9.90625 C 3.992188 9.96875 3.992188 10.03125 4 10.09375 L 4 45 C 4 45.550781 4.449219 46 5 46 L 45 46 C 45.550781 46 46 45.550781 46 45 L 46 10.15625 C 46.003906 10.105469 46.003906 10.050781 46 10 C 46 9.980469 46 9.957031 46 9.9375 C 46 9.925781 46 9.917969 46 9.90625 C 46 9.886719 46 9.863281 46 9.84375 C 45.988281 9.832031 45.980469 9.824219 45.96875 9.8125 C 45.96875 9.792969 45.96875 9.769531 45.96875 9.75 C 45.96875 9.738281 45.96875 9.730469 45.96875 9.71875 C 45.960938 9.699219 45.949219 9.675781 45.9375 9.65625 C 45.925781 9.644531 45.917969 9.636719 45.90625 9.625 C 45.90625 9.605469 45.90625 9.582031 45.90625 9.5625 C 45.894531 9.550781 45.886719 9.542969 45.875 9.53125 C 45.867188 9.511719 45.855469 9.488281 45.84375 9.46875 C 45.832031 9.457031 45.824219 9.449219 45.8125 9.4375 C 45.800781 9.425781 45.792969 9.417969 45.78125 9.40625 C 45.773438 9.386719 45.761719 9.363281 45.75 9.34375 C 45.738281 9.332031 45.730469 9.324219 45.71875 9.3125 C 45.707031 9.300781 45.699219 9.292969 45.6875 9.28125 C 45.675781 9.269531 45.667969 9.261719 45.65625 9.25 C 45.644531 9.238281 45.636719 9.230469 45.625 9.21875 L 45.53125 9.15625 C 45.511719 9.132813 45.492188 9.113281 45.46875 9.09375 L 39.625 4.21875 C 39.449219 4.078125 39.226563 4 39 4 L 25.21875 4 C 25.117188 3.972656 25.011719 3.960938 24.90625 3.96875 Z M 11.375 6 L 24 6 L 24 9 L 7.78125 9 Z M 26 6 L 38.625 6 L 42.21875 9 L 26 9 Z M 6 11 L 44 11 L 44 44 L 6 44 Z M 21.5 15 C 20.117188 15 19 16.117188 19 17.5 C 19 18.882813 20.117188 20 21.5 20 L 28.5 20 C 29.882813 20 31 18.882813 31 17.5 C 31 16.117188 29.882813 15 28.5 15 Z M 21.5 17 L 28.5 17 C 28.714844 17 29 17.285156 29 17.5 C 29 17.714844 28.714844 18 28.5 18 L 21.5 18 C 21.285156 18 21 17.714844 21 17.5 C 21 17.285156 21.285156 17 21.5 17 Z M 31 31 L 28 34 L 30 34 L 30 38 L 32 38 L 32 34 L 34 34 Z M 38 31 L 35 34 L 37 34 L 37 38 L 39 38 L 39 34 L 41 34 Z M 28 39 L 28 41 L 41 41 L 41 39 Z "/>
</g>
</svg>